<svg height="512.00012pt" viewBox="0 0 512.00012 512.00012" width="512.00012pt" xmlns="http://www.w3.org/2000/svg"><path d="m512 256c0 141.386719-114.613281 256-256 256s-256-114.613281-256-256 114.613281-256 256-256 256 114.613281 256 256zm0 0" fill="#ff6e40"/><g fill="#ffd54f"><path d="m512 256c.046875-67.894531-26.972656-133.011719-75.070312-180.929688l-180.929688 180.929688zm0 0"/><path d="m256 0c-67.894531-.046875-133.011719 26.972656-180.929688 75.070312l180.929688 180.929688zm0 0"/><path d="m256 512c67.894531.046875 133.011719-26.972656 180.929688-75.070312l-180.929688-180.929688zm0 0"/><path d="m0 256c-.046875 67.894531 26.972656 133.011719 75.070312 180.929688l180.929688-180.929688zm0 0"/></g><path d="m432 256c0 97.203125-78.796875 176-176 176s-176-78.796875-176-176 78.796875-176 176-176 176 78.796875 176 176zm0 0" fill="#ffb300"/><path d="m240 208h80v-32h-48v-32h-32v32c-26.507812 0-48 21.492188-48 48s21.492188 48 48 48h32c8.835938 0 16 7.164062 16 16s-7.164062 16-16 16h-80v32h48v32h32v-32c26.507812 0 48-21.492188 48-48s-21.492188-48-48-48h-32c-8.835938 0-16-7.164062-16-16s7.164062-16 16-16zm0 0" fill="#fff"/><path d="m368 240h32v32h-32zm0 0" fill="#fff"/><path d="m112 240h32v32h-32zm0 0" fill="#fff"/></svg>